<svg width="558" height="558" viewBox="0 0 558 558" fill="none" xmlns="http://www.w3.org/2000/svg">
<circle cx="279" cy="279" r="279" fill="white"/>
<rect width="558" height="558" fill="#292929"/>
<path d="M280.8 502.615L399.925 466.472L427.952 122.881H280.8V502.615Z" fill="#27AE60"/>
<path d="M220.261 228.348H316.53V405.383H220.261V228.348Z" fill="#27AE60"/>
<path d="M363.221 419.502H324.753V390.199C308.159 411.936 285.908 422.804 258 422.804C237.132 422.804 219.783 416.338 205.955 403.406C192.378 390.474 185.59 373.278 185.59 351.816C185.59 330.08 192.881 313.846 207.464 303.115C222.046 292.385 241.783 287.019 266.674 287.019H321.359V278.765C321.359 249.599 306.525 235.017 276.857 235.017C258.251 235.017 238.892 242.446 218.778 257.304L199.921 228.413C224.309 207.227 251.966 196.634 282.891 196.634C306.525 196.634 325.759 203.237 340.593 216.444C355.678 229.376 363.221 249.875 363.221 277.94V419.502ZM320.982 337.784V319.212H273.462C243.04 319.212 227.829 329.667 227.829 350.578C227.829 361.309 231.6 369.563 239.143 375.341C246.686 380.844 257.12 383.596 270.445 383.596C284.022 383.596 295.839 379.469 305.896 371.214C315.953 362.96 320.982 351.816 320.982 337.784Z" fill="white"/>
<path fill-rule="evenodd" clip-rule="evenodd" d="M383.07 441.225H304.903V433.896C290.846 441.006 275.116 444.527 258 444.527C233.142 444.527 211.006 436.704 193.06 419.921L192.991 419.857L192.923 419.792C174.596 402.336 165.74 378.928 165.74 351.817C165.74 323.949 175.535 300.434 196.388 285.09C200.026 282.413 203.852 280.034 207.853 277.938L172.802 224.238L187.58 211.4C215.451 187.188 247.451 174.912 282.891 174.912C309.914 174.912 333.855 182.511 352.979 199.47C374.272 217.817 383.07 245.699 383.07 277.94V441.225ZM340.592 216.445C325.758 203.238 306.524 196.634 282.891 196.634C258.684 196.634 236.481 203.124 216.279 216.105C214.839 217.031 213.408 217.989 211.988 218.981C207.88 221.849 203.858 224.993 199.921 228.414L218.777 257.304C238.891 242.446 258.251 235.017 276.856 235.017C301.539 235.017 315.954 245.111 320.102 265.298C320.94 269.375 321.358 273.864 321.358 278.765V287.02H266.674C241.783 287.02 222.046 292.385 207.463 303.116C192.881 313.847 185.589 330.08 185.589 351.817C185.589 373.278 192.378 390.475 205.955 403.407C219.783 416.339 237.131 422.805 258 422.805C275.983 422.805 291.618 418.292 304.903 409.266C312.235 404.285 318.852 397.93 324.753 390.2V419.503H363.221V277.94C363.221 249.875 355.678 229.377 340.592 216.445ZM299.197 265.298C298.472 263.803 297.677 262.81 296.968 262.114C294.62 259.805 289.125 256.739 276.856 256.739C266.577 256.739 255.188 259.825 242.548 267.012C250.253 265.847 258.313 265.298 266.674 265.298H299.197ZM273.462 319.212C243.04 319.212 227.829 329.668 227.829 350.579C227.829 361.309 231.6 369.564 239.143 375.342C246.686 380.845 257.12 383.596 270.445 383.596C284.022 383.596 295.839 379.469 305.896 371.215C315.188 363.588 320.188 353.494 320.894 340.934C320.952 339.901 320.981 338.851 320.981 337.784V319.212H273.462ZM300.98 340.934H273.462C259.687 340.934 252.734 343.428 249.795 345.448C248.611 346.262 248.317 346.826 248.214 347.039C248.083 347.31 247.678 348.27 247.678 350.579C247.678 354.62 248.615 356.037 250.338 357.4C253.477 359.61 259.515 361.874 270.445 361.874C280.092 361.874 287.646 359.041 293.986 353.837C298.183 350.392 300.405 346.527 300.98 340.934Z" fill="#27AE60"/>
</svg>
